<?xml version="1.0" encoding="UTF-8" standalone="no"?>
<!-- Created with Inkscape (http://www.inkscape.org/) -->

<svg
   xmlns:dc="http://purl.org/dc/elements/1.1/"
   xmlns:cc="http://creativecommons.org/ns#"
   xmlns:rdf="http://www.w3.org/1999/02/22-rdf-syntax-ns#"
   xmlns:svg="http://www.w3.org/2000/svg"
   xmlns="http://www.w3.org/2000/svg"
   xmlns:sodipodi="http://sodipodi.sourceforge.net/DTD/sodipodi-0.dtd"
   xmlns:inkscape="http://www.inkscape.org/namespaces/inkscape"
   id="svg3529"
   version="1.1"
   inkscape:version="0.91 r13725"
   xml:space="preserve"
   width="422.5"
   height="122.5"
   viewBox="0 0 422.5 122.5"
   sodipodi:docname="hcross.svg"><metadata
     id="metadata3535"><rdf:RDF><cc:Work
         rdf:about=""><dc:format>image/svg+xml</dc:format><dc:type
           rdf:resource="http://purl.org/dc/dcmitype/StillImage" /><dc:title></dc:title></cc:Work></rdf:RDF></metadata><defs
     id="defs3533"><clipPath
       clipPathUnits="userSpaceOnUse"
       id="clipPath3545"><path
         d="m 6,2 0,3448 4604,0 L 4610,2 6,2 Z"
         id="path3547"
         inkscape:connector-curvature="0" /></clipPath><clipPath
       clipPathUnits="userSpaceOnUse"
       id="clipPath3555"><path
         d="m 582,1266 3571,0 0,892.801 -3571,0 0,-892.801 z"
         id="path3557"
         inkscape:connector-curvature="0" /></clipPath><clipPath
       clipPathUnits="userSpaceOnUse"
       id="clipPath3573"><path
         d="m 6,2 0,3448 4604,0 L 4610,2 6,2 Z"
         id="path3575"
         inkscape:connector-curvature="0" /></clipPath><clipPath
       clipPathUnits="userSpaceOnUse"
       id="clipPath3382"><rect
         id="rect3384"
         width="338"
         height="98"
         x="70.400002"
         y="-205.60001" /></clipPath><clipPath
       clipPathUnits="userSpaceOnUse"
       id="clipPath3386"><rect
         id="rect3388"
         width="338"
         height="98"
         x="70.400002"
         y="-205.60001" /></clipPath><clipPath
       clipPathUnits="userSpaceOnUse"
       id="clipPath3390"><rect
         id="rect3392"
         width="338"
         height="98"
         x="70.400002"
         y="-205.60001" /></clipPath><clipPath
       clipPathUnits="userSpaceOnUse"
       id="clipPath3394"><rect
         id="rect3396"
         width="338"
         height="98"
         x="70.400002"
         y="-205.60001" /></clipPath><clipPath
       clipPathUnits="userSpaceOnUse"
       id="clipPath3398"><rect
         id="rect3400"
         width="338"
         height="98"
         x="70.400002"
         y="-205.60001" /></clipPath><clipPath
       clipPathUnits="userSpaceOnUse"
       id="clipPath3402"><rect
         id="rect3404"
         width="338"
         height="98"
         x="70.400002"
         y="-205.60001" /></clipPath><clipPath
       clipPathUnits="userSpaceOnUse"
       id="clipPath3406"><rect
         id="rect3408"
         width="338"
         height="98"
         x="70.400002"
         y="-205.60001" /></clipPath><clipPath
       clipPathUnits="userSpaceOnUse"
       id="clipPath3410"><rect
         id="rect3412"
         width="3380"
         height="980"
         x="652"
         y="-2092"
         transform="scale(1,-1)" /></clipPath></defs><sodipodi:namedview
     pagecolor="#ffffff"
     bordercolor="#666666"
     borderopacity="1"
     objecttolerance="10"
     gridtolerance="10"
     guidetolerance="10"
     inkscape:pageopacity="0"
     inkscape:pageshadow="2"
     inkscape:window-width="1559"
     inkscape:window-height="876"
     id="namedview3531"
     showgrid="false"
     showguides="true"
     inkscape:guide-bbox="true"
     inkscape:zoom="2"
     inkscape:cx="167.76996"
     inkscape:cy="116.33509"
     inkscape:window-x="41"
     inkscape:window-y="24"
     inkscape:window-maximized="1"
     inkscape:current-layer="g3537"
     fit-margin-top="0"
     fit-margin-left="0"
     fit-margin-right="0"
     fit-margin-bottom="0"><sodipodi:guide
       position="1,15"
       orientation="0,1"
       id="guide3577" /><sodipodi:guide
       position="41,210"
       orientation="1,0"
       id="guide3579" /><sodipodi:guide
       position="123,208"
       orientation="1,0"
       id="guide3581" /><sodipodi:guide
       position="208,169.5"
       orientation="1,0"
       id="guide3583" /><sodipodi:guide
       position="291.5,158.5"
       orientation="1,0"
       id="guide3585" /><sodipodi:guide
       position="373,122"
       orientation="1,0"
       id="guide3587" /><sodipodi:guide
       position="-48,122.5"
       orientation="0,1"
       id="guide3372" /><sodipodi:guide
       position="-73.5,0"
       orientation="0,1"
       id="guide3374" /><sodipodi:guide
       position="422.5,132"
       orientation="1,0"
       id="guide3376" /><sodipodi:guide
       position="0,149"
       orientation="1,0"
       id="guide3378" /></sodipodi:namedview><g
     id="g3537"
     inkscape:groupmode="layer"
     inkscape:label="ink_ext_XXXXXX"
     transform="matrix(1.25,0,0,-1.25,-88,257)"><g
       id="g3539"
       transform="matrix(0.1,0,0,0.1,5.2,-3.6)"
       clip-path="url(#clipPath3410)"><g
         id="g3541"><g
           id="g3543"
           clip-path="url(#clipPath3545)"><path
             d="m 6,2 4608,0 0,3456 L 6,3458 6,2 Z"
             style="fill:#ffffff;fill-opacity:1;fill-rule:nonzero;stroke:none"
             id="path3549"
             inkscape:connector-curvature="0" /></g></g><g
         id="g3551"><g
           id="g3553"
           clip-path="url(#clipPath3555)"><path
             d="m 1186.23,1554.89 c 41.85,41.86 65.37,98.64 65.37,157.83 0,59.19 -23.52,115.97 -65.37,157.83 -41.86,41.85 -98.64,65.37 -157.83,65.37 -59.193,0 -115.97,-23.52 -157.826,-65.37 -41.855,-41.86 -65.375,-98.64 -65.375,-157.83 0,-59.19 23.52,-115.97 65.375,-157.83 41.856,-41.85 98.633,-65.37 157.826,-65.37 59.19,0 115.97,23.52 157.83,65.37 z"
             style="fill:none;stroke:#000000;stroke-width:30;stroke-linecap:butt;stroke-linejoin:miter;stroke-miterlimit:10;stroke-dasharray:none;stroke-opacity:1"
             id="path3559"
             inkscape:connector-curvature="0" /><path
             d="m 1776.91,1791.63 c -62.78,62.79 -131.32,114.69 -190.51,144.29 -59.19,29.6 -104.21,34.47 -125.14,13.54 -20.93,-20.93 -16.06,-65.95 13.54,-125.14 29.6,-59.19 81.5,-127.73 144.29,-190.51 62.78,-62.79 131.32,-114.69 190.51,-144.29 59.19,-29.6 104.21,-34.47 125.14,-13.54 20.93,20.93 16.06,65.95 -13.54,125.14 -29.6,59.19 -81.5,127.73 -144.29,190.51 z"
             style="fill:none;stroke:#000000;stroke-width:30;stroke-linecap:butt;stroke-linejoin:miter;stroke-miterlimit:10;stroke-dasharray:none;stroke-opacity:1"
             id="path3561"
             inkscape:connector-curvature="0" /><path
             d="m 2525.43,1554.89 c 41.85,41.86 65.37,98.64 65.37,157.83 0,59.19 -23.52,115.97 -65.37,157.83 -41.86,41.85 -98.64,65.37 -157.83,65.37 -59.19,0 -115.97,-23.52 -157.83,-65.37 -41.85,-41.86 -65.37,-98.64 -65.37,-157.83 0,-59.19 23.52,-115.97 65.37,-157.83 41.86,-41.85 98.64,-65.37 157.83,-65.37 59.19,0 115.97,23.52 157.83,65.37 z"
             style="fill:none;stroke:#000000;stroke-width:30;stroke-linecap:butt;stroke-linejoin:miter;stroke-miterlimit:10;stroke-dasharray:none;stroke-opacity:1"
             id="path3563"
             inkscape:connector-curvature="0" /><path
             d="m 3116.11,1633.81 c 62.79,62.78 114.69,131.32 144.29,190.51 29.6,59.19 34.47,104.21 13.54,125.14 -20.93,20.93 -65.95,16.06 -125.14,-13.54 -59.19,-29.6 -127.73,-81.5 -190.51,-144.29 -62.79,-62.78 -114.69,-131.32 -144.29,-190.51 -29.6,-59.19 -34.47,-104.21 -13.54,-125.14 20.93,-20.93 65.95,-16.06 125.14,13.54 59.19,29.6 127.73,81.5 190.51,144.29 z"
             style="fill:none;stroke:#000000;stroke-width:30;stroke-linecap:butt;stroke-linejoin:miter;stroke-miterlimit:10;stroke-dasharray:none;stroke-opacity:1"
             id="path3565"
             inkscape:connector-curvature="0" /><path
             d="m 3864.63,1554.89 c 41.85,41.86 65.37,98.64 65.37,157.83 0,59.19 -23.52,115.97 -65.37,157.83 -41.86,41.85 -98.64,65.37 -157.83,65.37 -59.19,0 -115.97,-23.52 -157.83,-65.37 -41.85,-41.86 -65.37,-98.64 -65.37,-157.83 0,-59.19 23.52,-115.97 65.37,-157.83 41.86,-41.85 98.64,-65.37 157.83,-65.37 59.19,0 115.97,23.52 157.83,65.37 z"
             style="fill:none;stroke:#000000;stroke-width:30;stroke-linecap:butt;stroke-linejoin:miter;stroke-miterlimit:10;stroke-dasharray:none;stroke-opacity:1"
             id="path3567"
             inkscape:connector-curvature="0" /></g></g><g
         id="g3569"><g
           id="g3571"
           clip-path="url(#clipPath3573)" /></g></g><text
       xml:space="preserve"
       style="font-style:normal;font-weight:normal;font-size:22px;line-height:125%;font-family:sans-serif;text-align:end;letter-spacing:0px;word-spacing:0px;text-anchor:end;fill:#000000;fill-opacity:1;stroke:none;stroke-width:1px;stroke-linecap:butt;stroke-linejoin:miter;stroke-opacity:1"
       x="117.02077"
       y="-114.37754"
       id="text3415"
       sodipodi:linespacing="125%"
       transform="scale(1,-1)"
       clip-path="url(#clipPath3406)"><tspan
         sodipodi:role="line"
         id="tspan3417"
         x="117.02077"
         y="-114.37754" /></text>
<text
       xml:space="preserve"
       style="font-style:normal;font-weight:normal;font-size:32px;line-height:125%;font-family:sans-serif;letter-spacing:0px;word-spacing:0px;fill:#000000;fill-opacity:1;stroke:none;stroke-width:1px;stroke-linecap:butt;stroke-linejoin:miter;stroke-opacity:1"
       x="102.23952"
       y="-114.37754"
       id="text3419"
       sodipodi:linespacing="125%"
       transform="scale(1,-1)"
       clip-path="url(#clipPath3402)"><tspan
         sodipodi:role="line"
         id="tspan3421"
         x="102.23952"
         y="-114.37754" /></text>
<text
       xml:space="preserve"
       style="font-style:normal;font-weight:normal;font-size:10.39154339px;line-height:125%;font-family:sans-serif;letter-spacing:0px;word-spacing:0px;fill:#000000;fill-opacity:1;stroke:none;stroke-width:1px;stroke-linecap:butt;stroke-linejoin:miter;stroke-opacity:1"
       x="103.05682"
       y="-114.18484"
       id="text3427"
       sodipodi:linespacing="125%"
       transform="scale(1,-1)"
       clip-path="url(#clipPath3398)"><tspan
         sodipodi:role="line"
         id="tspan3429"
         x="103.05682"
         y="-114.18484">a</tspan></text>
<text
       xml:space="preserve"
       style="font-style:normal;font-weight:normal;font-size:9.81077862px;line-height:125%;font-family:sans-serif;letter-spacing:0px;word-spacing:0px;fill:#000000;fill-opacity:1;stroke:none;stroke-width:1px;stroke-linecap:butt;stroke-linejoin:miter;stroke-opacity:1"
       x="170.75415"
       y="-114.17662"
       id="text3431"
       sodipodi:linespacing="125%"
       transform="scale(1,-1)"
       clip-path="url(#clipPath3394)"><tspan
         sodipodi:role="line"
         id="tspan3433"
         x="170.75415"
         y="-114.17662">b</tspan></text>
<text
       xml:space="preserve"
       style="font-style:normal;font-weight:normal;font-size:11.09525967px;line-height:125%;font-family:sans-serif;letter-spacing:0px;word-spacing:0px;fill:#000000;fill-opacity:1;stroke:none;stroke-width:1px;stroke-linecap:butt;stroke-linejoin:miter;stroke-opacity:1"
       x="236.93668"
       y="-114.19481"
       id="text3435"
       sodipodi:linespacing="125%"
       transform="scale(1,-1)"
       clip-path="url(#clipPath3390)"><tspan
         sodipodi:role="line"
         id="tspan3437"
         x="236.93668"
         y="-114.19481">c</tspan></text>
<text
       xml:space="preserve"
       style="font-style:normal;font-weight:normal;font-size:9.82057953px;line-height:125%;font-family:sans-serif;letter-spacing:0px;word-spacing:0px;fill:#000000;fill-opacity:1;stroke:none;stroke-width:1px;stroke-linecap:butt;stroke-linejoin:miter;stroke-opacity:1"
       x="305.63348"
       y="-114.17676"
       id="text3439"
       sodipodi:linespacing="125%"
       transform="scale(1,-1)"
       clip-path="url(#clipPath3386)"><tspan
         sodipodi:role="line"
         id="tspan3441"
         x="305.63348"
         y="-114.17676">d</tspan></text>
<text
       xml:space="preserve"
       style="font-style:normal;font-weight:normal;font-size:9.47052002px;line-height:125%;font-family:sans-serif;letter-spacing:0px;word-spacing:0px;fill:#000000;fill-opacity:1;stroke:none;stroke-width:1px;stroke-linecap:butt;stroke-linejoin:miter;stroke-opacity:1"
       x="371.47824"
       y="-114.1718"
       id="text3443"
       sodipodi:linespacing="125%"
       transform="scale(1,-1)"
       clip-path="url(#clipPath3382)"><tspan
         sodipodi:role="line"
         id="tspan3445"
         x="371.47824"
         y="-114.1718">e</tspan></text>
</g></svg>