<?xml version="1.0" encoding="UTF-8" standalone="no"?>
<!-- Created with Inkscape (http://www.inkscape.org/) -->

<svg
   xmlns:dc="http://purl.org/dc/elements/1.1/"
   xmlns:cc="http://creativecommons.org/ns#"
   xmlns:rdf="http://www.w3.org/1999/02/22-rdf-syntax-ns#"
   xmlns:svg="http://www.w3.org/2000/svg"
   xmlns="http://www.w3.org/2000/svg"
   xmlns:sodipodi="http://sodipodi.sourceforge.net/DTD/sodipodi-0.dtd"
   xmlns:inkscape="http://www.inkscape.org/namespaces/inkscape"
   id="svg3355"
   version="1.1"
   inkscape:version="0.91 r13725"
   xml:space="preserve"
   width="414.36456"
   height="139.65359"
   viewBox="0 0 414.36456 139.65359"
   sodipodi:docname="hplus.svg"><metadata
     id="metadata3361"><rdf:RDF><cc:Work
         rdf:about=""><dc:format>image/svg+xml</dc:format><dc:type
           rdf:resource="http://purl.org/dc/dcmitype/StillImage" /><dc:title></dc:title></cc:Work></rdf:RDF></metadata><defs
     id="defs3359"><clipPath
       clipPathUnits="userSpaceOnUse"
       id="clipPath3371"><path
         d="m 6,2 0,3448 4604,0 L 4610,2 6,2 Z"
         id="path3373"
         inkscape:connector-curvature="0" /></clipPath><clipPath
       clipPathUnits="userSpaceOnUse"
       id="clipPath3381"><path
         d="m 582,1266 3571,0 0,892.801 -3571,0 0,-892.801 z"
         id="path3383"
         inkscape:connector-curvature="0" /></clipPath><clipPath
       clipPathUnits="userSpaceOnUse"
       id="clipPath3399"><path
         d="m 6,2 0,3448 4604,0 L 4610,2 6,2 Z"
         id="path3401"
         inkscape:connector-curvature="0" /></clipPath><clipPath
       clipPathUnits="userSpaceOnUse"
       id="clipPath3382"><rect
         id="rect3384"
         width="331.49164"
         height="111.72288"
         x="76.367538"
         y="-215.2433" /></clipPath><clipPath
       clipPathUnits="userSpaceOnUse"
       id="clipPath3386"><rect
         id="rect3388"
         width="331.49164"
         height="111.72288"
         x="76.367538"
         y="-215.2433" /></clipPath><clipPath
       clipPathUnits="userSpaceOnUse"
       id="clipPath3390"><rect
         id="rect3392"
         width="331.49164"
         height="111.72288"
         x="76.367538"
         y="-215.2433" /></clipPath><clipPath
       clipPathUnits="userSpaceOnUse"
       id="clipPath3394"><rect
         id="rect3396"
         width="331.49164"
         height="111.72288"
         x="76.367538"
         y="-215.2433" /></clipPath><clipPath
       clipPathUnits="userSpaceOnUse"
       id="clipPath3398"><rect
         id="rect3400"
         width="331.49164"
         height="111.72288"
         x="76.367538"
         y="-215.2433" /></clipPath><clipPath
       clipPathUnits="userSpaceOnUse"
       id="clipPath3402"><rect
         id="rect3404"
         width="331.49164"
         height="111.72288"
         x="76.367538"
         y="-215.2433" /></clipPath><clipPath
       clipPathUnits="userSpaceOnUse"
       id="clipPath3406"><rect
         id="rect3408"
         width="331.49164"
         height="111.72288"
         x="76.367538"
         y="-215.2433" /></clipPath><clipPath
       clipPathUnits="userSpaceOnUse"
       id="clipPath3410"><rect
         id="rect3412"
         width="3314.9165"
         height="1117.2288"
         x="729.70294"
         y="-2135.5991"
         transform="scale(1,-1)" /></clipPath></defs><sodipodi:namedview
     pagecolor="#ffffff"
     bordercolor="#666666"
     borderopacity="1"
     objecttolerance="10"
     gridtolerance="10"
     guidetolerance="10"
     inkscape:pageopacity="0"
     inkscape:pageshadow="2"
     inkscape:window-width="1559"
     inkscape:window-height="876"
     id="namedview3357"
     showgrid="false"
     showguides="true"
     inkscape:guide-bbox="true"
     inkscape:zoom="2.8284271"
     inkscape:cx="188.84809"
     inkscape:cy="79.167695"
     inkscape:window-x="41"
     inkscape:window-y="24"
     inkscape:window-maximized="1"
     inkscape:current-layer="g3363"
     fit-margin-top="0"
     fit-margin-left="0"
     fit-margin-right="0"
     fit-margin-bottom="0"><sodipodi:guide
       position="-26.516512,1.4833984e-05"
       orientation="0,1"
       id="guide3403" /><sodipodi:guide
       position="32.339966,159.46111"
       orientation="1,0"
       id="guide3405" /><sodipodi:guide
       position="116.37245,192.72396"
       orientation="1,0"
       id="guide3407" /><sodipodi:guide
       position="199.82135,198.55955"
       orientation="1,0"
       id="guide3409" /><sodipodi:guide
       position="285.60451,176.38431"
       orientation="1,0"
       id="guide3411" /><sodipodi:guide
       position="367.88631,169.96517"
       orientation="1,0"
       id="guide3413" /><sodipodi:guide
       position="-42.779967,139.6536"
       orientation="0,1"
       id="guide3372" /><sodipodi:guide
       position="-7.7368163e-06,181.3729"
       orientation="1,0"
       id="guide3374" /><sodipodi:guide
       position="414.36456,114.19776"
       orientation="1,0"
       id="guide3376" /></sodipodi:namedview><g
     id="g3363"
     inkscape:groupmode="layer"
     inkscape:label="ink_ext_XXXXXX"
     transform="matrix(1.25,0,0,-1.25,-95.459424,269.05412)"><g
       id="g3365"
       transform="matrix(0.1,0,0,0.1,3.3972448,1.683384)"
       clip-path="url(#clipPath3410)"><g
         id="g3367"><g
           id="g3369"
           clip-path="url(#clipPath3371)"><path
             d="m 6,2 4608,0 0,3456 L 6,3458 6,2 Z"
             style="fill:#ffffff;fill-opacity:1;fill-rule:nonzero;stroke:none"
             id="path3375"
             inkscape:connector-curvature="0" /></g></g><g
         id="g3377"><g
           id="g3379"
           clip-path="url(#clipPath3381)"><path
             d="m 1028.4,1489.52 c 59.19,0 115.97,23.52 157.83,65.37 41.85,41.86 65.37,98.64 65.37,157.83 0,59.19 -23.52,115.97 -65.37,157.83 -41.86,41.85 -98.64,65.37 -157.83,65.37 -59.193,0 -115.97,-23.52 -157.826,-65.37 -41.855,-41.86 -65.375,-98.64 -65.375,-157.83 0,-59.19 23.52,-115.97 65.375,-157.83 41.856,-41.85 98.633,-65.37 157.826,-65.37 z"
             style="fill:none;stroke:#000000;stroke-width:30;stroke-linecap:butt;stroke-linejoin:miter;stroke-miterlimit:10;stroke-dasharray:none;stroke-opacity:1"
             id="path3385"
             inkscape:connector-curvature="0" /><path
             d="m 1809.6,1712.72 c 0,88.79 -11.76,173.96 -32.69,236.74 -20.93,62.78 -49.31,98.06 -78.91,98.06 -29.6,0 -57.98,-35.28 -78.91,-98.06 -20.93,-62.78 -32.69,-147.95 -32.69,-236.74 0,-88.79 11.76,-173.95 32.69,-236.74 20.93,-62.78 49.31,-98.06 78.91,-98.06 29.6,0 57.98,35.28 78.91,98.06 20.93,62.79 32.69,147.95 32.69,236.74 z"
             style="fill:none;stroke:#000000;stroke-width:30;stroke-linecap:butt;stroke-linejoin:miter;stroke-miterlimit:10;stroke-dasharray:none;stroke-opacity:1"
             id="path3387"
             inkscape:connector-curvature="0" /><path
             d="m 2367.6,1489.52 c 59.19,0 115.97,23.52 157.83,65.37 41.85,41.86 65.37,98.64 65.37,157.83 0,59.19 -23.52,115.97 -65.37,157.83 -41.86,41.85 -98.64,65.37 -157.83,65.37 -59.19,0 -115.97,-23.52 -157.83,-65.37 -41.85,-41.86 -65.37,-98.64 -65.37,-157.83 0,-59.19 23.52,-115.97 65.37,-157.83 41.86,-41.85 98.64,-65.37 157.83,-65.37 z"
             style="fill:none;stroke:#000000;stroke-width:30;stroke-linecap:butt;stroke-linejoin:miter;stroke-miterlimit:10;stroke-dasharray:none;stroke-opacity:1"
             id="path3389"
             inkscape:connector-curvature="0" /><path
             d="m 3037.2,1601.12 c 88.79,0 173.96,11.76 236.74,32.69 62.78,20.92 98.06,49.32 98.06,78.91 0,29.6 -35.28,57.99 -98.06,78.91 -62.78,20.93 -147.95,32.69 -236.74,32.69 -88.79,0 -173.95,-11.76 -236.74,-32.69 -62.78,-20.92 -98.06,-49.31 -98.06,-78.91 0,-29.59 35.28,-57.99 98.06,-78.91 62.79,-20.93 147.95,-32.69 236.74,-32.69 z"
             style="fill:none;stroke:#000000;stroke-width:30;stroke-linecap:butt;stroke-linejoin:miter;stroke-miterlimit:10;stroke-dasharray:none;stroke-opacity:1"
             id="path3391"
             inkscape:connector-curvature="0" /><path
             d="m 3706.8,1489.52 c 59.19,0 115.97,23.52 157.83,65.37 41.85,41.86 65.37,98.64 65.37,157.83 0,59.19 -23.52,115.97 -65.37,157.83 -41.86,41.85 -98.64,65.37 -157.83,65.37 -59.19,0 -115.97,-23.52 -157.83,-65.37 -41.85,-41.86 -65.37,-98.64 -65.37,-157.83 0,-59.19 23.52,-115.97 65.37,-157.83 41.86,-41.85 98.64,-65.37 157.83,-65.37 z"
             style="fill:none;stroke:#000000;stroke-width:30;stroke-linecap:butt;stroke-linejoin:miter;stroke-miterlimit:10;stroke-dasharray:none;stroke-opacity:1"
             id="path3393"
             inkscape:connector-curvature="0" /></g></g><g
         id="g3395"><g
           id="g3397"
           clip-path="url(#clipPath3399)" /></g></g><text
       xml:space="preserve"
       style="font-style:normal;font-weight:normal;font-size:22px;line-height:125%;font-family:sans-serif;text-align:end;letter-spacing:0px;word-spacing:0px;text-anchor:end;fill:#000000;fill-opacity:1;stroke:none;stroke-width:1px;stroke-linecap:butt;stroke-linejoin:miter;stroke-opacity:1"
       x="117.02077"
       y="-114.37754"
       id="text3415"
       sodipodi:linespacing="125%"
       transform="scale(1,-1)"
       clip-path="url(#clipPath3406)"><tspan
         sodipodi:role="line"
         id="tspan3417"
         x="117.02077"
         y="-114.37754" /></text>
<text
       xml:space="preserve"
       style="font-style:normal;font-weight:normal;font-size:32px;line-height:125%;font-family:sans-serif;letter-spacing:0px;word-spacing:0px;fill:#000000;fill-opacity:1;stroke:none;stroke-width:1px;stroke-linecap:butt;stroke-linejoin:miter;stroke-opacity:1"
       x="102.23952"
       y="-114.37754"
       id="text3419"
       sodipodi:linespacing="125%"
       transform="scale(1,-1)"
       clip-path="url(#clipPath3402)"><tspan
         sodipodi:role="line"
         id="tspan3421"
         x="102.23952"
         y="-114.37754" /></text>
<text
       xml:space="preserve"
       style="font-style:normal;font-weight:normal;font-size:10.39154339px;line-height:125%;font-family:sans-serif;letter-spacing:0px;word-spacing:0px;fill:#000000;fill-opacity:1;stroke:none;stroke-width:1px;stroke-linecap:butt;stroke-linejoin:miter;stroke-opacity:1"
       x="103.05682"
       y="-114.18484"
       id="text3427"
       sodipodi:linespacing="125%"
       transform="scale(1,-1)"
       clip-path="url(#clipPath3398)"><tspan
         sodipodi:role="line"
         id="tspan3429"
         x="103.05682"
         y="-114.18484">a</tspan></text>
<text
       xml:space="preserve"
       style="font-style:normal;font-weight:normal;font-size:9.81077862px;line-height:125%;font-family:sans-serif;letter-spacing:0px;word-spacing:0px;fill:#000000;fill-opacity:1;stroke:none;stroke-width:1px;stroke-linecap:butt;stroke-linejoin:miter;stroke-opacity:1"
       x="170.75415"
       y="-114.17662"
       id="text3431"
       sodipodi:linespacing="125%"
       transform="scale(1,-1)"
       clip-path="url(#clipPath3394)"><tspan
         sodipodi:role="line"
         id="tspan3433"
         x="170.75415"
         y="-114.17662">b</tspan></text>
<text
       xml:space="preserve"
       style="font-style:normal;font-weight:normal;font-size:11.09525967px;line-height:125%;font-family:sans-serif;letter-spacing:0px;word-spacing:0px;fill:#000000;fill-opacity:1;stroke:none;stroke-width:1px;stroke-linecap:butt;stroke-linejoin:miter;stroke-opacity:1"
       x="236.93668"
       y="-114.19481"
       id="text3435"
       sodipodi:linespacing="125%"
       transform="scale(1,-1)"
       clip-path="url(#clipPath3390)"><tspan
         sodipodi:role="line"
         id="tspan3437"
         x="236.93668"
         y="-114.19481">c</tspan></text>
<text
       xml:space="preserve"
       style="font-style:normal;font-weight:normal;font-size:9.82057953px;line-height:125%;font-family:sans-serif;letter-spacing:0px;word-spacing:0px;fill:#000000;fill-opacity:1;stroke:none;stroke-width:1px;stroke-linecap:butt;stroke-linejoin:miter;stroke-opacity:1"
       x="305.63348"
       y="-114.17676"
       id="text3439"
       sodipodi:linespacing="125%"
       transform="scale(1,-1)"
       clip-path="url(#clipPath3386)"><tspan
         sodipodi:role="line"
         id="tspan3441"
         x="305.63348"
         y="-114.17676">d</tspan></text>
<text
       xml:space="preserve"
       style="font-style:normal;font-weight:normal;font-size:9.47052002px;line-height:125%;font-family:sans-serif;letter-spacing:0px;word-spacing:0px;fill:#000000;fill-opacity:1;stroke:none;stroke-width:1px;stroke-linecap:butt;stroke-linejoin:miter;stroke-opacity:1"
       x="371.47824"
       y="-114.1718"
       id="text3443"
       sodipodi:linespacing="125%"
       transform="scale(1,-1)"
       clip-path="url(#clipPath3382)"><tspan
         sodipodi:role="line"
         id="tspan3445"
         x="371.47824"
         y="-114.1718">e</tspan></text>
</g></svg>