<?xml version="1.0" encoding="UTF-8" standalone="no"?>
<!-- Created with Inkscape (http://www.inkscape.org/) -->

<svg
   xmlns:dc="http://purl.org/dc/elements/1.1/"
   xmlns:cc="http://creativecommons.org/ns#"
   xmlns:rdf="http://www.w3.org/1999/02/22-rdf-syntax-ns#"
   xmlns:svg="http://www.w3.org/2000/svg"
   xmlns="http://www.w3.org/2000/svg"
   xmlns:sodipodi="http://sodipodi.sourceforge.net/DTD/sodipodi-0.dtd"
   xmlns:inkscape="http://www.inkscape.org/namespaces/inkscape"
   id="svg3529"
   version="1.1"
   inkscape:version="0.91 r13725"
   xml:space="preserve"
   width="394.36179"
   height="187.15523"
   viewBox="0 0 394.36179 187.15523"
   sodipodi:docname="hpolarisation.svg"><metadata
     id="metadata3535"><rdf:RDF><cc:Work
         rdf:about=""><dc:format>image/svg+xml</dc:format><dc:type
           rdf:resource="http://purl.org/dc/dcmitype/StillImage" /><dc:title></dc:title></cc:Work></rdf:RDF></metadata><defs
     id="defs3533"><clipPath
       clipPathUnits="userSpaceOnUse"
       id="clipPath3545"><path
         d="m 6,2 0,3448 4604,0 L 4610,2 6,2 Z"
         id="path3547"
         inkscape:connector-curvature="0" /></clipPath><clipPath
       clipPathUnits="userSpaceOnUse"
       id="clipPath3555"><path
         d="m 582,1266 3571,0 0,892.801 -3571,0 0,-892.801 z"
         id="path3557"
         inkscape:connector-curvature="0" /></clipPath><clipPath
       clipPathUnits="userSpaceOnUse"
       id="clipPath3573"><path
         d="m 6,2 0,3448 4604,0 L 4610,2 6,2 Z"
         id="path3575"
         inkscape:connector-curvature="0" /></clipPath><clipPath
       clipPathUnits="userSpaceOnUse"
       id="clipPath3382"><rect
         id="rect3384"
         width="338"
         height="98"
         x="70.400002"
         y="-205.60001" /></clipPath><clipPath
       clipPathUnits="userSpaceOnUse"
       id="clipPath3386"><rect
         id="rect3388"
         width="338"
         height="98"
         x="70.400002"
         y="-205.60001" /></clipPath><clipPath
       clipPathUnits="userSpaceOnUse"
       id="clipPath3390"><rect
         id="rect3392"
         width="338"
         height="98"
         x="70.400002"
         y="-205.60001" /></clipPath><clipPath
       clipPathUnits="userSpaceOnUse"
       id="clipPath3394"><rect
         id="rect3396"
         width="338"
         height="98"
         x="70.400002"
         y="-205.60001" /></clipPath><clipPath
       clipPathUnits="userSpaceOnUse"
       id="clipPath3398"><rect
         id="rect3400"
         width="338"
         height="98"
         x="70.400002"
         y="-205.60001" /></clipPath><clipPath
       clipPathUnits="userSpaceOnUse"
       id="clipPath3402"><rect
         id="rect3404"
         width="338"
         height="98"
         x="70.400002"
         y="-205.60001" /></clipPath><clipPath
       clipPathUnits="userSpaceOnUse"
       id="clipPath3406"><rect
         id="rect3408"
         width="338"
         height="98"
         x="70.400002"
         y="-205.60001" /></clipPath><clipPath
       clipPathUnits="userSpaceOnUse"
       id="clipPath3410"><rect
         id="rect3412"
         width="3380"
         height="980"
         x="652"
         y="-2092"
         transform="scale(1,-1)" /></clipPath><clipPath
       id="clipPath3371"
       clipPathUnits="userSpaceOnUse"><path
         inkscape:connector-curvature="0"
         id="path3373"
         d="m 6,2 0,3448 4604,0 L 4610,2 6,2 Z" /></clipPath><clipPath
       id="clipPath3381"
       clipPathUnits="userSpaceOnUse"><path
         inkscape:connector-curvature="0"
         id="path3383"
         d="m 582,1266 3571,0 0,892.801 -3571,0 0,-892.801 z" /></clipPath><clipPath
       id="clipPath3399"
       clipPathUnits="userSpaceOnUse"><path
         inkscape:connector-curvature="0"
         id="path3401"
         d="m 6,2 0,3448 4604,0 L 4610,2 6,2 Z" /></clipPath><clipPath
       id="clipPath3382-8"
       clipPathUnits="userSpaceOnUse"><rect
         y="-215.2433"
         x="76.367538"
         height="111.72288"
         width="331.49164"
         id="rect3384-9" /></clipPath><clipPath
       id="clipPath3386-7"
       clipPathUnits="userSpaceOnUse"><rect
         y="-215.2433"
         x="76.367538"
         height="111.72288"
         width="331.49164"
         id="rect3388-3" /></clipPath><clipPath
       id="clipPath3390-6"
       clipPathUnits="userSpaceOnUse"><rect
         y="-215.2433"
         x="76.367538"
         height="111.72288"
         width="331.49164"
         id="rect3392-1" /></clipPath><clipPath
       id="clipPath3394-2"
       clipPathUnits="userSpaceOnUse"><rect
         y="-215.2433"
         x="76.367538"
         height="111.72288"
         width="331.49164"
         id="rect3396-9" /></clipPath><clipPath
       id="clipPath3398-3"
       clipPathUnits="userSpaceOnUse"><rect
         y="-215.2433"
         x="76.367538"
         height="111.72288"
         width="331.49164"
         id="rect3400-1" /></clipPath><clipPath
       id="clipPath3402-9"
       clipPathUnits="userSpaceOnUse"><rect
         y="-215.2433"
         x="76.367538"
         height="111.72288"
         width="331.49164"
         id="rect3404-4" /></clipPath><clipPath
       id="clipPath3406-7"
       clipPathUnits="userSpaceOnUse"><rect
         y="-215.2433"
         x="76.367538"
         height="111.72288"
         width="331.49164"
         id="rect3408-8" /></clipPath><clipPath
       id="clipPath3410-4"
       clipPathUnits="userSpaceOnUse"><rect
         transform="scale(1,-1)"
         y="-2135.5991"
         x="729.70294"
         height="1117.2288"
         width="3314.9165"
         id="rect3412-5" /></clipPath></defs><sodipodi:namedview
     pagecolor="#ffffff"
     bordercolor="#666666"
     borderopacity="1"
     objecttolerance="10"
     gridtolerance="10"
     guidetolerance="10"
     inkscape:pageopacity="0"
     inkscape:pageshadow="2"
     inkscape:window-width="1559"
     inkscape:window-height="876"
     id="namedview3531"
     showgrid="false"
     showguides="true"
     inkscape:guide-bbox="true"
     inkscape:zoom="1.4142136"
     inkscape:cx="416.12543"
     inkscape:cy="96.248237"
     inkscape:window-x="41"
     inkscape:window-y="24"
     inkscape:window-maximized="1"
     inkscape:current-layer="layer1"
     fit-margin-top="0"
     fit-margin-left="0"
     fit-margin-right="0"
     fit-margin-bottom="0"
     inkscape:snap-others="true"
     inkscape:snap-object-midpoints="true"
     inkscape:snap-nodes="true"
     inkscape:snap-to-guides="false"><sodipodi:guide
       position="-21.56333,93.998656"
       orientation="0,1"
       id="guide3577" /><sodipodi:guide
       position="18.436665,288.99866"
       orientation="1,0"
       id="guide3579" /><sodipodi:guide
       position="100.43668,286.99866"
       orientation="1,0"
       id="guide3581" /><sodipodi:guide
       position="166.9413,250.1185"
       orientation="1,0"
       id="guide3583" /><sodipodi:guide
       position="268.93668,237.49866"
       orientation="1,0"
       id="guide3585" /><sodipodi:guide
       position="350.43668,200.99866"
       orientation="1,0"
       id="guide3587" /><sodipodi:guide
       position="-70.563331,201.49866"
       orientation="0,1"
       id="guide3372" /><sodipodi:guide
       position="-96.063331,78.998661"
       orientation="0,1"
       id="guide3374" /><sodipodi:guide
       position="399.93668,210.99866"
       orientation="1,0"
       id="guide3376" /><sodipodi:guide
       position="-22.56333,227.99866"
       orientation="1,0"
       id="guide3378" /><sodipodi:guide
       position="-22.56333,78.998661"
       orientation="0,422.5"
       id="guide4004" /><sodipodi:guide
       position="399.93668,78.998661"
       orientation="-122.5,0"
       id="guide4006" /><sodipodi:guide
       position="399.93668,201.49866"
       orientation="0,-422.5"
       id="guide4008" /><sodipodi:guide
       position="-22.56333,201.49866"
       orientation="122.5,0"
       id="guide4010" /></sodipodi:namedview><g
     inkscape:groupmode="layer"
     id="layer1"
     inkscape:label="ink_ext_XXXXXX 1"
     style="display:inline"
     transform="translate(-22.56333,-14.343435)"><path
       inkscape:connector-curvature="0"
       id="path3385"
       style="fill:none;stroke:#000000;stroke-width:3.75;stroke-linecap:butt;stroke-linejoin:miter;stroke-miterlimit:10;stroke-dasharray:none;stroke-opacity:1"
       d="m 52.338455,166.66126 c 7.39875,0 14.49625,-2.94 19.72875,-8.17125 5.23125,-5.2325 8.17125,-12.33 8.17125,-19.72875 0,-7.39875 -2.94,-14.49625 -8.17125,-19.72875 -5.2325,-5.23125 -12.33,-8.17125 -19.72875,-8.17125 -7.399125,0 -14.49625,2.94 -19.72825,8.17125 -5.231875,5.2325 -8.171875,12.33 -8.171875,19.72875 0,7.39875 2.94,14.49625 8.171875,19.72875 5.232,5.23125 12.329125,8.17125 19.72825,8.17125 z" /><path
       inkscape:connector-curvature="0"
       id="path3387"
       style="fill:none;stroke:#000000;stroke-width:3.75;stroke-linecap:butt;stroke-linejoin:miter;stroke-miterlimit:10;stroke-dasharray:none;stroke-opacity:1"
       d="m 149.98845,138.76126 c 0,-11.09875 -1.47,-21.745 -4.08625,-29.5925 -2.61625,-7.8475 -6.16375,-12.2575 -9.86375,-12.2575 -3.7,0 -7.2475,4.41 -9.86375,12.2575 -2.61625,7.8475 -4.08625,18.49375 -4.08625,29.5925 0,11.09875 1.47,21.74375 4.08625,29.5925 2.61625,7.8475 6.16375,12.2575 9.86375,12.2575 3.7,0 7.2475,-4.41 9.86375,-12.2575 2.61625,-7.84875 4.08625,-18.49375 4.08625,-29.5925 z" /><path
       inkscape:connector-curvature="0"
       id="path3389"
       style="fill:none;stroke:#000000;stroke-width:3.75;stroke-linecap:butt;stroke-linejoin:miter;stroke-miterlimit:10;stroke-dasharray:none;stroke-opacity:1"
       d="m 219.73845,166.66126 c 7.39875,0 14.49625,-2.94 19.72875,-8.17125 5.23125,-5.2325 8.17125,-12.33 8.17125,-19.72875 0,-7.39875 -2.94,-14.49625 -8.17125,-19.72875 -5.2325,-5.23125 -12.33,-8.17125 -19.72875,-8.17125 -7.39875,0 -14.49624,2.94 -19.72875,8.17125 -5.23125,5.2325 -8.17125,12.33 -8.17125,19.72875 0,7.39875 2.94,14.49625 8.17125,19.72875 5.23251,5.23125 12.33,8.17125 19.72875,8.17125 z" /><path
       inkscape:connector-curvature="0"
       id="path3391"
       style="fill:none;stroke:#000000;stroke-width:3.75;stroke-linecap:butt;stroke-linejoin:miter;stroke-miterlimit:10;stroke-dasharray:none;stroke-opacity:1"
       d="m 303.43845,152.71126 c 11.09875,0 21.745,-1.47 29.5925,-4.08625 7.8475,-2.615 12.2575,-6.165 12.2575,-9.86375 0,-3.7 -4.41,-7.24875 -12.2575,-9.86375 -7.8475,-2.61625 -18.49375,-4.08625 -29.5925,-4.08625 -11.09875,0 -21.74375,1.47 -29.5925,4.08625 -7.8475,2.615 -12.2575,6.16375 -12.2575,9.86375 0,3.69875 4.41001,7.24875 12.2575,9.86375 7.84875,2.61625 18.49375,4.08625 29.5925,4.08625 z" /><path
       inkscape:connector-curvature="0"
       id="path3393"
       style="fill:none;stroke:#000000;stroke-width:3.75;stroke-linecap:butt;stroke-linejoin:miter;stroke-miterlimit:10;stroke-dasharray:none;stroke-opacity:1"
       d="m 387.13846,166.66126 c 7.39875,0 14.49624,-2.94 19.72875,-8.17125 5.23124,-5.2325 8.17124,-12.33 8.17124,-19.72875 0,-7.39875 -2.94,-14.49625 -8.17124,-19.72875 -5.23251,-5.23125 -12.33,-8.17125 -19.72875,-8.17125 -7.39875,0 -14.49625,2.94 -19.72875,8.17125 -5.23125,5.2325 -8.17125,12.33 -8.17125,19.72875 0,7.39875 2.94,14.49625 8.17125,19.72875 5.2325,5.23125 12.33,8.17125 19.72875,8.17125 z" /><g
       id="g3395"
       transform="matrix(0.125,0,0,-0.125,-76.211545,352.85126)"><g
         clip-path="url(#clipPath3399)"
         id="g3397" /></g><text
       xml:space="preserve"
       style="font-style:normal;font-weight:normal;font-size:22px;line-height:125%;font-family:sans-serif;text-align:end;letter-spacing:0px;word-spacing:0px;text-anchor:end;fill:#000000;fill-opacity:1;stroke:none;stroke-width:1px;stroke-linecap:butt;stroke-linejoin:miter;stroke-opacity:1"
       x="117.02077"
       y="-114.37754"
       id="text3415-1"
       sodipodi:linespacing="125%"
       transform="matrix(1.25,0,0,1.25,-80.458101,354.95549)"
       clip-path="url(#clipPath3406-7)"><tspan
         sodipodi:role="line"
         id="tspan3417-0"
         x="117.02077"
         y="-114.37754" /></text>
<text
       xml:space="preserve"
       style="font-style:normal;font-weight:normal;font-size:32px;line-height:125%;font-family:sans-serif;letter-spacing:0px;word-spacing:0px;fill:#000000;fill-opacity:1;stroke:none;stroke-width:1px;stroke-linecap:butt;stroke-linejoin:miter;stroke-opacity:1"
       x="102.23952"
       y="-114.37754"
       id="text3419-6"
       sodipodi:linespacing="125%"
       transform="matrix(1.25,0,0,1.25,-80.458101,354.95549)"
       clip-path="url(#clipPath3402-9)"><tspan
         sodipodi:role="line"
         id="tspan3421-3"
         x="102.23952"
         y="-114.37754" /></text>
<text
       xml:space="preserve"
       style="font-style:normal;font-weight:normal;font-size:10.39154339px;line-height:125%;font-family:sans-serif;text-align:start;letter-spacing:0px;word-spacing:0px;writing-mode:lr-tb;text-anchor:start;fill:#000000;fill-opacity:1;stroke:none;stroke-width:1px;stroke-linecap:butt;stroke-linejoin:miter;stroke-opacity:1"
       x="103.05682"
       y="-114.18484"
       id="text3427-2"
       sodipodi:linespacing="125%"
       transform="matrix(1.25,0,0,1.25,-88.458101,342.95549)"
       clip-path="url(#clipPath3398-3)"><tspan
         sodipodi:role="line"
         id="tspan4051"
         x="103.05682"
         y="-114.18484">t=0</tspan></text>
<text
       xml:space="preserve"
       style="font-style:normal;font-weight:normal;font-size:9.81077862px;line-height:125%;font-family:sans-serif;text-align:start;letter-spacing:0px;word-spacing:0px;writing-mode:lr-tb;text-anchor:start;fill:#000000;fill-opacity:1;stroke:none;stroke-width:1px;stroke-linecap:butt;stroke-linejoin:miter;stroke-opacity:1"
       x="170.75415"
       y="-114.17662"
       id="text3431-6"
       sodipodi:linespacing="125%"
       transform="matrix(1.25,0,0,1.25,-88.458101,342.95549)"
       clip-path="url(#clipPath3394-2)"><tspan
         sodipodi:role="line"
         id="tspan4053"
         x="170.75415"
         y="-114.17662">t=T/4</tspan></text>
<text
       xml:space="preserve"
       style="font-style:normal;font-weight:normal;font-size:11.09525967px;line-height:125%;font-family:sans-serif;text-align:start;letter-spacing:0px;word-spacing:0px;writing-mode:lr-tb;text-anchor:start;fill:#000000;fill-opacity:1;stroke:none;stroke-width:1px;stroke-linecap:butt;stroke-linejoin:miter;stroke-opacity:1"
       x="236.93668"
       y="-114.19481"
       id="text3435-5"
       sodipodi:linespacing="125%"
       transform="matrix(1.25,0,0,1.25,-88.458101,342.95549)"
       clip-path="url(#clipPath3390-6)"><tspan
         sodipodi:role="line"
         id="tspan4055"
         x="236.93668"
         y="-114.19481">t=T/2</tspan></text>
<text
       xml:space="preserve"
       style="font-style:normal;font-weight:normal;font-size:9.82057953px;line-height:125%;font-family:sans-serif;text-align:start;letter-spacing:0px;word-spacing:0px;writing-mode:lr-tb;text-anchor:start;fill:#000000;fill-opacity:1;stroke:none;stroke-width:1px;stroke-linecap:butt;stroke-linejoin:miter;stroke-opacity:1"
       x="305.63348"
       y="-114.17676"
       id="text3439-4"
       sodipodi:linespacing="125%"
       transform="matrix(1.25,0,0,1.25,-88.458101,342.95549)"
       clip-path="url(#clipPath3386-7)"><tspan
         sodipodi:role="line"
         id="tspan4057"
         x="305.63348"
         y="-114.17676">t=3T/4</tspan></text>
<text
       xml:space="preserve"
       style="font-style:normal;font-weight:normal;font-size:9.47052002px;line-height:125%;font-family:sans-serif;text-align:start;letter-spacing:0px;word-spacing:0px;writing-mode:lr-tb;text-anchor:start;fill:#000000;fill-opacity:1;stroke:none;stroke-width:1px;stroke-linecap:butt;stroke-linejoin:miter;stroke-opacity:1"
       x="371.47824"
       y="-114.1718"
       id="text3443-6"
       sodipodi:linespacing="125%"
       transform="matrix(1.25,0,0,1.25,-88.458101,342.95549)"
       clip-path="url(#clipPath3382-8)"><tspan
         sodipodi:role="line"
         id="tspan4059"
         x="371.47824"
         y="-114.1718">t=T</tspan></text>
</g><g
     inkscape:groupmode="layer"
     id="layer3"
     inkscape:label="ink_ext_XXXXXX 3"
     style="display:inline"
     transform="translate(-22.56333,-14.343435)"><path
       inkscape:connector-curvature="0"
       id="path3559"
       style="display:inline;fill:none;stroke:#000000;stroke-width:3.75;stroke-linecap:butt;stroke-linejoin:miter;stroke-miterlimit:10;stroke-dasharray:none;stroke-opacity:1"
       d="m 72.078875,67.13875 c 5.23125,-5.2325 8.17125,-12.33 8.17125,-19.72875 0,-7.39875 -2.94,-14.49625 -8.17125,-19.72875 C 66.846375,22.45 59.748875,19.51 52.350125,19.51 44.951,19.51 37.853875,22.45 32.621875,27.68125 27.39,32.91375 24.45,40.01125 24.45,47.41 c 0,7.39875 2.94,14.49625 8.171875,19.72875 5.232,5.23125 12.329125,8.17125 19.72825,8.17125 7.39875,0 14.49625,-2.94 19.72875,-8.17125 z" /><path
       inkscape:connector-curvature="0"
       id="path3561"
       style="display:inline;fill:none;stroke:#000000;stroke-width:3.75;stroke-linecap:butt;stroke-linejoin:miter;stroke-miterlimit:10;stroke-dasharray:none;stroke-opacity:1"
       d="M 145.91387,37.54625 C 138.06637,29.6975 129.49887,23.21 122.10013,19.51 c -7.39875,-3.7 -13.02625,-4.30875 -15.64251,-1.6925 -2.61625,2.61625 -2.00749,8.24375 1.69251,15.6425 3.7,7.39875 10.1875,15.96625 18.03625,23.81375 7.84749,7.84875 16.415,14.33625 23.81374,18.03625 7.39875,3.7 13.02625,4.30875 15.6425,1.6925 2.61625,-2.61625 2.0075,-8.24375 -1.6925,-15.6425 -3.7,-7.39875 -10.1875,-15.96625 -18.03625,-23.81375 z" /><path
       inkscape:connector-curvature="0"
       id="path3565"
       style="display:inline;fill:none;stroke:#000000;stroke-width:3.75;stroke-linecap:butt;stroke-linejoin:miter;stroke-miterlimit:10;stroke-dasharray:none;stroke-opacity:1"
       d="m 313.31387,57.27375 c 7.84875,-7.8475 14.33625,-16.415 18.03625,-23.81375 3.7,-7.39875 4.30875,-13.02625 1.6925,-15.6425 -2.61625,-2.61625 -8.24375,-2.0075 -15.6425,1.6925 -7.39875,3.7 -15.96625,10.1875 -23.81375,18.03625 -7.84875,7.8475 -14.33625,16.415 -18.03625,23.81375 -3.7,7.39875 -4.30875,13.02625 -1.6925,15.6425 2.61625,2.61625 8.24375,2.0075 15.6425,-1.6925 7.39875,-3.7 15.96625,-10.1875 23.81375,-18.03625 z" /><path
       inkscape:connector-curvature="0"
       id="path3567"
       style="display:inline;fill:none;stroke:#000000;stroke-width:3.75;stroke-linecap:butt;stroke-linejoin:miter;stroke-miterlimit:10;stroke-dasharray:none;stroke-opacity:1"
       d="m 406.87887,67.13875 c 5.23125,-5.2325 8.17125,-12.33 8.17125,-19.72875 0,-7.39875 -2.94,-14.49625 -8.17125,-19.72875 C 401.64638,22.45 394.54887,19.51 387.15012,19.51 c -7.39875,0 -14.49625,2.94 -19.72875,8.17125 -5.23125,5.2325 -8.17125,12.33 -8.17125,19.72875 0,7.39875 2.94,14.49625 8.17125,19.72875 5.2325,5.23125 12.33,8.17125 19.72875,8.17125 7.39875,0 14.49625,-2.94 19.72875,-8.17125 z" /><path
       inkscape:connector-curvature="0"
       id="path3563-3"
       style="display:inline;fill:none;stroke:#000000;stroke-width:3.75;stroke-linecap:butt;stroke-linejoin:miter;stroke-miterlimit:10;stroke-dasharray:none;stroke-opacity:1"
       d="m 239.47888,67.13875 c 5.23124,-5.2325 8.17124,-12.33 8.17124,-19.72875 0,-7.39875 -2.94,-14.49625 -8.17125,-19.72875 -5.2325,-5.23125 -12.33,-8.17125 -19.72875,-8.17125 -7.39875,0 -14.49625,2.94 -19.72875,8.17125 -5.23124,5.2325 -8.17124,12.33 -8.17124,19.72875 0,7.39875 2.94,14.49625 8.17124,19.72875 5.2325,5.23125 12.33001,8.17125 19.72875,8.17125 7.39875,0 14.49625,-2.94 19.72875,-8.17125 z" /></g></svg>